
        <svg xmlns="http://www.w3.org/2000/svg" xmlns:xlink="http://www.w3.org/1999/xlink" version="1.1" width="3162.3083859332733" 
        height="864.4901656720094" viewBox="0 0 3162.3083859332733 864.4901656720094">
			<rect fill="#0c0c0c" width="3162.3083859332733" height="864.4901656720094"/>
			<g transform="scale(8.115419296663662) translate(10, 10)">
				<defs id="SvgjsDefs3882"><linearGradient id="SvgjsLinearGradient3889"><stop id="SvgjsStop3890" stop-color="#ef4136" offset="0"></stop><stop id="SvgjsStop3891" stop-color="#fbb040" offset="1"></stop></linearGradient><linearGradient id="SvgjsLinearGradient3892"><stop id="SvgjsStop3893" stop-color="#ef4136" offset="0"></stop><stop id="SvgjsStop3894" stop-color="#fbb040" offset="1"></stop></linearGradient><linearGradient id="SvgjsLinearGradient3895"><stop id="SvgjsStop3896" stop-color="#ef4136" offset="0"></stop><stop id="SvgjsStop3897" stop-color="#fbb040" offset="1"></stop></linearGradient></defs><g id="SvgjsG3883" featureKey="symbolFeature-0" transform="matrix(0.9201493299474712,0,0,0.9201493299474712,-4.340304907857159,-2.744814482697792)" fill="url(#SvgjsLinearGradient3889)"><g xmlns="http://www.w3.org/2000/svg" display="none"><rect x="-192" display="inline" width="185" height="99"></rect><rect y="-36" display="inline" width="100" height="30"></rect><text transform="matrix(1 0 0 1 66 -19.5)" display="inline" fill="url(#SvgjsLinearGradient3889)" font-family="'Helvetica'" font-size="2.4">http://thenounproject.com</text><text transform="matrix(1 0 0 1 7.166 -24.5)" display="inline" fill="url(#SvgjsLinearGradient3889)" font-family="'Helvetica-Bold'" font-size="6.1578">The Noun Project</text><text transform="matrix(1 0 0 1 8.2861 -19.7002)" display="inline" fill="url(#SvgjsLinearGradient3889)" font-family="'Helvetica-Bold'" font-size="4">Icon Template</text><text transform="matrix(1 0 0 1 -178.5 10.5)" display="inline" fill="url(#SvgjsLinearGradient3889)" font-family="'Helvetica-Bold'" font-size="6.1578">Reminders</text><line display="inline" fill="url(#SvgjsLinearGradient3889)" stroke="url(#SvgjsLinearGradient3889)" stroke-miterlimit="10" x1="8" y1="-14.5" x2="18" y2="-14.5"></line><line display="inline" fill="url(#SvgjsLinearGradient3889)" stroke="url(#SvgjsLinearGradient3889)" stroke-miterlimit="10" x1="-179" y1="16.5" x2="-162" y2="16.5"></line><g display="inline"><g><g><rect x="-170.802" y="31.318" fill="url(#SvgjsLinearGradient3889)" width="8.721" height="8.642"></rect><path fill="url(#SvgjsLinearGradient3889)" d="M-164.455,42.312h4.747v-4.703h-4.747V42.312z M-159.266,42.749h-5.63V37.17h5.63V42.749      L-159.266,42.749z M-166.221,44.062h8.279v-8.203h-8.279V44.062L-166.221,44.062z M-157.5,44.5h-9.163v-9.079h9.163V44.5      L-157.5,44.5z"></path><polygon fill="url(#SvgjsLinearGradient3889)" points="-166.149,44.133 -166.292,43.991 -158.013,35.787 -157.871,35.929     "></polygon></g></g></g><rect x="-179" y="58" display="inline" fill="none" width="35" height="32.5"></rect><text transform="matrix(1 0 0 1 -179 60.1572)" display="inline" fill="url(#SvgjsLinearGradient3889)" font-family="'Helvetica-Bold'" font-size="3">Strokes</text><text transform="matrix(1 0 0 1 -179 65.1572)" display="inline" fill="url(#SvgjsLinearGradient3889)" font-family="'Helvetica'" font-size="2.4">Try to keep strokes at 4px</text><text transform="matrix(1 0 0 1 -179 70.1572)" display="inline" fill="url(#SvgjsLinearGradient3889)" font-family="'Helvetica'" font-size="2.4">Minimum stroke weight is 2px</text><text transform="matrix(1 0 0 1 -179 74.6572)" display="inline" fill="url(#SvgjsLinearGradient3889)" font-family="'Helvetica'" font-size="2.4">For thicker strokes use even </text><text transform="matrix(1 0 0 1 -179 77.6572)" display="inline" fill="url(#SvgjsLinearGradient3889)" font-family="'Helvetica'" font-size="2.4">numbers: 6px, 8px etc.</text><text transform="matrix(1 0 0 1 -179 82.1572)" display="inline" fill="url(#SvgjsLinearGradient3889)" font-family="'Helvetica-Bold'" font-size="2.4">Remember to expand strokes </text><text transform="matrix(1 0 0 1 -179 85.1572)" display="inline" fill="url(#SvgjsLinearGradient3889)" font-family="'Helvetica-Bold'" font-size="2.4">before saving as an SVG </text><rect x="-136.5" y="58" display="inline" fill="none" width="35" height="32.5"></rect><text transform="matrix(1 0 0 1 -136.5 60.1572)" display="inline" fill="url(#SvgjsLinearGradient3889)" font-family="'Helvetica-Bold'" font-size="3">Size</text><text transform="matrix(1 0 0 1 -136.5 65.1572)" display="inline" fill="url(#SvgjsLinearGradient3889)" font-family="'Helvetica'" font-size="2.4">Cannot be wider or taller than </text><text transform="matrix(1 0 0 1 -136.5 68.6572)" display="inline" fill="url(#SvgjsLinearGradient3889)" font-family="'Helvetica'" font-size="2.4">100px (artboard size)</text><text transform="matrix(1 0 0 1 -136.5 73.6572)" display="inline" fill="url(#SvgjsLinearGradient3889)" font-family="'Helvetica'" font-size="2.4">Scale your icon to fill as much of </text><text transform="matrix(1 0 0 1 -136.5 76.6572)" display="inline" fill="url(#SvgjsLinearGradient3889)" font-family="'Helvetica'" font-size="2.4">the artboard as possible</text><rect x="-94" y="58" display="inline" fill="none" width="35" height="32.5"></rect><text transform="matrix(1 0 0 1 -94 60.1572)" display="inline" fill="url(#SvgjsLinearGradient3889)" font-family="'Helvetica-Bold'" font-size="3">Ungroup</text><text transform="matrix(1 0 0 1 -94 65.1572)" display="inline" fill="url(#SvgjsLinearGradient3889)" font-family="'Helvetica'" font-size="2.4">If your design has more than one </text><text transform="matrix(1 0 0 1 -94 68.1572)" display="inline" fill="url(#SvgjsLinearGradient3889)" font-family="'Helvetica'" font-size="2.4">shape, make sure to ungroup</text><rect x="-50" y="58" display="inline" fill="none" width="35" height="32.5"></rect><text transform="matrix(1 0 0 1 -50 60.1572)" display="inline" fill="url(#SvgjsLinearGradient3889)" font-family="'Helvetica-Bold'" font-size="3">Save as</text><text transform="matrix(1 0 0 1 -50 65.1572)" display="inline" fill="url(#SvgjsLinearGradient3889)" font-family="'Helvetica'" font-size="2.4">Save as .SVG and make sure </text><text transform="matrix(1 0 0 1 -50 68.1572)" display="inline" fill="url(#SvgjsLinearGradient3889)" font-family="'Helvetica'" font-size="2.4">“Use Artboards” is checked</text><text transform="matrix(1.0074 0 0 1 -125.542 30.5938)" display="inline" fill="url(#SvgjsLinearGradient3889)" font-family="'Helvetica'" font-size="2.5731">100px</text><text transform="matrix(1.0074 0 0 1 -41 39)" display="inline" fill="url(#SvgjsLinearGradient3889)" font-family="'Helvetica-Bold'" font-size="5.1462">.SVG</text><rect x="-126.514" y="34.815" display="inline" fill="url(#SvgjsLinearGradient3889)" width="10.261" height="10.185"></rect><rect x="-126.477" y="31.766" display="inline" fill="url(#SvgjsLinearGradient3889)" width="0.522" height="2.337"></rect><rect x="-116.812" y="31.766" display="inline" fill="url(#SvgjsLinearGradient3889)" width="0.523" height="2.337"></rect><rect x="-127" y="32.337" display="inline" fill="url(#SvgjsLinearGradient3889)" width="11.233" height="0.572"></rect><g display="inline"><rect x="-83.805" y="33.844" fill="url(#SvgjsLinearGradient3889)" width="10.305" height="10.156"></rect><rect x="-76.809" y="28.707" fill="url(#SvgjsLinearGradient3889)" width="3.308" height="3.261"></rect></g><rect x="-178.5" y="22.5" display="inline" fill="url(#SvgjsLinearGradient3889)" stroke="url(#SvgjsLinearGradient3889)" stroke-miterlimit="10" width="30" height="30"></rect><rect x="-136.5" y="22.5" display="inline" fill="url(#SvgjsLinearGradient3889)" stroke="url(#SvgjsLinearGradient3889)" stroke-miterlimit="10" width="30" height="30"></rect><rect x="-93.5" y="22.5" display="inline" fill="url(#SvgjsLinearGradient3889)" stroke="url(#SvgjsLinearGradient3889)" stroke-miterlimit="10" width="30" height="30"></rect><rect x="-49.5" y="22.5" display="inline" fill="url(#SvgjsLinearGradient3889)" stroke="url(#SvgjsLinearGradient3889)" stroke-miterlimit="10" width="30" height="30"></rect></g><path xmlns="http://www.w3.org/2000/svg" fill="url(#SvgjsLinearGradient3889)" d="M29.328,26.617c0,0,7.676-22.475,0-23.605c-6.707-0.988-12.114,23.605-12.114,23.605l0.78,0.312  c0,0,2.392-5.511,3.899-8.683s5.096-8.423,6.396-6.915c1.3,1.508-1.716,3.625-1.716,3.625s1.352,0.326,2.184,1.626  C29.589,17.882,29.328,26.617,29.328,26.617z"></path><path xmlns="http://www.w3.org/2000/svg" fill="url(#SvgjsLinearGradient3889)" d="M15.446,24.642c0,0-0.884,6.239-0.624,9.463s1.092,8.891,1.092,8.891s-2.235-0.988-3.275-4.576  c-0.643-2.217-1.3-4.939-1.3-4.939s-1.872,0.884-2.392-0.052c-0.521-0.936,1.403-1.872,2.808-3.847  C13.158,27.605,15.446,24.642,15.446,24.642z"></path><path xmlns="http://www.w3.org/2000/svg" fill="url(#SvgjsLinearGradient3889)" d="M35.724,14.956c0,0,1.118,1.699,1.118,4.096c0,3.12-1.118,4.628-1.118,4.628l7.176-0.13  c0,0,0.416,1.456,1.195,1.976c0.78,0.52,4.419,0.78,4.991,1.404s-0.052,0.728,0.416,1.144c0.468,0.416,0.988-0.156,1.352,0.884  c0.364,1.04,0,1.924,0,1.924s0.156,0.338,0.546,0.39c0.391,0.052,1.301,0,1.301,0s0.936-1.274,1.222-0.962s-0.13,1.82-0.13,1.82  l1.689,0.364c0,0,1.43-1.3,2.366-0.988c0.936,0.312,1.325,1.118,2.002,1.716c0.676,0.598,2.989,2.027,2.989,2.027  s-1.118-3.412-1.976-5.147c-1.066-2.158-3.77-4.263-3.666-5.329c0.104-1.066,0.806-1.43,0.806-1.43s-1.195-1.534-2.989-2.417  s-3.068-0.962-3.796-2.652s0.936-12.816-1.352-13.336c-2.288-0.52-7.669,11.465-9.723,11.413  C38.09,16.296,35.724,14.956,35.724,14.956z"></path><path xmlns="http://www.w3.org/2000/svg" fill="url(#SvgjsLinearGradient3889)" d="M57.718,35.664l-10.14,6.474c0,0,1.897,1.456,3.588,2.235c1.689,0.78,5.953,2.6,5.953,2.6l0.26-1.43  c0,0-0.441-0.858-0.728-1.066s-0.78-0.546-0.78-0.546c0.158-0.846,0.281-0.732,0.156-1.872c-0.104-0.949-0.702-1.482-0.702-1.482  L57.718,35.664z"></path><path xmlns="http://www.w3.org/2000/svg" fill="url(#SvgjsLinearGradient3889)" d="M63.889,37.501c0,0-2.218,3.024-2.046,3.817c0.174,0.793,0.936,5.126,3.502,7.482  c2.565,2.357,7.417,4.16,9.601,5.27s2.565,2.114,3.397,2.392c0.832,0.278,2.012-0.381,3.71-0.762  c1.697-0.382,3.396-0.278,3.396-0.278s-5.304-4.194-8.146-5.789c-2.842-1.594-7.729-3.737-8.734-4.956  c-1.318-1.595-1.282-2.601-2.426-4.195C64.998,38.888,63.889,37.501,63.889,37.501z"></path><path xmlns="http://www.w3.org/2000/svg" fill="url(#SvgjsLinearGradient3889)" d="M59.971,73.967c0,0,2.508,0.076,5.34,0.832c4.122,1.101,7.73,2.443,10.259,2.634  c4.159,0.312,10.919-7.001,13.414-9.324c1.906-1.772,7.176-3.535,6.172-6.585c-1.006-3.052-10.771-5.346-11.197-1.768  c-0.242,2.044,1.838,2.426,1.838,2.426s0.622,0.728,0.276,1.455c-0.346,0.729-1.422,1.561-1.768,2.496  c-0.347,0.936,0.069,1.421-0.242,1.941c-0.312,0.52-4.992,6.1-9.325,6.031c-4.332-0.069-7.69-0.953-9.151-1.282  c-2.46-0.555-4.955-0.208-4.955-0.208L59.971,73.967z"></path><path xmlns="http://www.w3.org/2000/svg" fill="url(#SvgjsLinearGradient3889)" d="M57.199,54.729c0,0-4.369,0.659-5.998,1.214c-1.629,0.554-5.649,2.114-5.581,3.293  c0.07,1.178,2.149,0.97,2.149,0.97l-1.489,2.842c0,0,0.518,0.141,0.866,0.557c0.346,0.415,0.432,0.588,0.432,0.588h1.162  l-0.104,1.109l-0.762,0.312c0,0-0.866,5.096,0.138,5.13c1.006,0.034,0.798-0.693,1.248-1.109c0.452-0.416,3.052-1.664,4.092-2.877  s1.836-3.71,1.836-3.71s-1.975,0.416-2.252-0.831c-0.278-1.248,1.316-2.08,1.316-2.08s-1.353-0.104-1.248-0.521  c0.104-0.415,1.109-1.039,2.149-2.147C56.193,56.358,57.199,54.729,57.199,54.729z"></path><path xmlns="http://www.w3.org/2000/svg" fill="url(#SvgjsLinearGradient3889)" d="M37.44,42.562c0,0-5.72,2.357-14.351,2.703c-8.566,0.345-8.804-1.344-8.804-1.344s-2.392,0.062-2.739,2.212  c-0.347,2.148,0.84,4.888,0.84,4.888s-0.909,0.104-2.019-0.174c-1.108-0.278-2.01-0.59-2.01-0.59s-0.45,1.422,0.763,3.536  c1.213,2.115,2.356,3.57,2.356,3.57l-5.372,1.282c0,0,0.521,1.04,2.045,1.422c1.525,0.38,2.912,0.658,2.912,0.658  s-4.021,1.63-4.68,1.733c-0.659,0.104-1.664,0.278-1.664,0.278s-0.046,1.165,2.942,1.749c1.909,0.373,3.596,0.305,4.899,0.373  c2.286,0.119,3.25,0.927,3.25,0.927L9.329,68.94c0,0,1.151,0.754,2.815,0.676s2.626-0.104,2.626-0.104l-5.147,3.405  c0,0,0.493,1.794,4.264,1.95c3.77,0.156,4.523,0.208,4.523,0.208s-1.378,0.806-2.574,1.664c-1.195,0.857-2.521,2.054-2.521,2.054  s1.456,0.13,1.846,0.598s-0.052,0.728,0.65,1.17c0.701,0.441,3.613,1.664,3.613,1.664L17.24,86.28c0,0,3.249-0.441,4.394-0.52  c1.144-0.078,2.911-0.078,2.911-0.078l-3.016,5.355c0,0,3.228-1.297,5.147-1.403c1.873-0.104,4.029,0.155,4.029,0.155l-1.144,2.808  c0,0,6.317-1.455,6.915-1.014c0.599,0.442-0.884,1.3-0.649,2.912c0.233,1.611,1.612,2.521,1.612,2.521l14.939-20.07  c0,0-2.184,0.07-4.09,1.18c-1.906,1.108-3.778,1.976-3.778,1.976l0.763-2.808l-0.312-0.104l-0.277-0.347l-4.437,1.421  c0,0,0.347-2.391,1.005-3.361c0.659-0.972,1.561-2.462,1.561-2.462s-6.481,2.461-7.765,1.768s0.242-4.956,0.242-4.956l-0.729-0.556  c0,0-1.073,0.243-1.421-0.173c-0.347-0.416,2.253-4.957,2.253-4.957s-2.148,0.208-3.084,0.763c-0.937,0.555-2.426,0.659-2.426,0.659  s-0.556-0.832-0.451-2.565c0.104-1.733,0.692-3.778,0.692-3.778l-2.808-0.139l0.312-0.571l-3.05-0.226c0,0,1.005-1.56,2.877-2.6  c1.871-1.04,4.471-1.456,4.471-1.456l0.485-1.422c0,0-1.248-0.069-1.768-0.381c-0.521-0.312-0.867-0.901-0.867-0.901l5.27-2.807  l0.936-1.128l-1.525-0.987c0,0,1.352-0.381,1.768-0.936C36.643,44.537,37.44,42.562,37.44,42.562z"></path></g><g id="SvgjsG3884" featureKey="nameFeature-0" transform="matrix(1.060389180837991,0,0,1.060389180837991,101.3033774117858,1.6390959169349415)" fill="url(#SvgjsLinearGradient3892)"><path d="M3.56 40 l-1.96 0 l0 -27.4 l1.96 0 l0 27.4 z M23.16 40 l-1.96 0 l0 -3.04 c-0.92 1.56 -3.04 3.36 -6.68 3.36 c-4.68 0 -7.76 -3.16 -7.76 -8.08 l0 -12.24 l1.96 0 l0 12 c0 4.04 2.24 6.44 6 6.44 c3.92 0 6.48 -2.64 6.48 -7 l0 -11.44 l1.96 0 l0 20 z M36.56 21.56 c-4.72 0 -8.36 3.64 -8.36 8.44 c0 4.76 3.64 8.4 8.36 8.4 c4.8 0 8.36 -3.68 8.36 -8.4 c0 -4.76 -3.56 -8.44 -8.36 -8.44 z M36.68 40.28 c-3.84 0 -6.72 -1.76 -8.36 -4.24 l0 10.92 l-1.96 0 l0 -26.96 l1.96 0 l0 3.92 c1.64 -2.48 4.52 -4.24 8.36 -4.24 c5.72 0 10.2 4.48 10.2 10.28 c0 5.84 -4.48 10.32 -10.2 10.32 z M59.2 19.68 c5.8 0 10.28 4.48 10.28 10.28 c0 5.84 -4.48 10.32 -10.28 10.32 c-5.84 0 -10.32 -4.48 -10.32 -10.32 c0 -5.8 4.48 -10.28 10.32 -10.28 z M59.2 21.56 c-4.8 0 -8.36 3.68 -8.36 8.44 c0 4.72 3.56 8.4 8.36 8.4 c4.76 0 8.32 -3.68 8.32 -8.4 c0 -4.76 -3.56 -8.44 -8.32 -8.44 z M80.72 19.68 l0 2.16 c-3.84 0 -6.68 2.92 -6.68 7.28 l0 10.88 l-1.96 0 l0 -20 l1.96 0 l0 3.72 c0.76 -1.52 2.92 -4.04 6.68 -4.04 z M91.44 21.56 c-4.8 0 -8.36 3.68 -8.36 8.44 c0 4.72 3.56 8.4 8.36 8.4 c4.72 0 8.36 -3.64 8.36 -8.4 c0 -4.8 -3.64 -8.44 -8.36 -8.44 z M99.68 40 l0 -3.96 c-1.64 2.48 -4.52 4.24 -8.36 4.24 c-5.72 0 -10.2 -4.48 -10.2 -10.32 c0 -5.8 4.48 -10.28 10.2 -10.28 c3.84 0 6.68 1.72 8.36 4.12 l0 -3.8 l1.96 0 l0 20 l-1.96 0 z M112.24000000000001 33.92 l2 0 c0.36 2.84 2.56 4.52 6.36 4.52 c3.68 0 5.6 -1.52 5.6 -3.92 c0 -6.08 -13.2 -1.48 -13.2 -9.32 c0 -3.28 2.76 -5.52 7.04 -5.52 c4.44 0 7.28 2.32 7.52 5.92 l-1.96 0 c-0.2 -2.08 -1.88 -4.08 -5.6 -4.08 c-3.16 0 -5 1.44 -5 3.6 c0 5.88 13.16 1.36 13.16 9.32 c0 3.4 -2.8 5.88 -7.6 5.88 c-4.84 0 -7.84 -2.2 -8.32 -6.4 z M140.48000000000002 19.68 c5.8 0 10.28 4.48 10.28 10.28 c0 5.84 -4.48 10.32 -10.28 10.32 c-5.84 0 -10.32 -4.48 -10.32 -10.32 c0 -5.8 4.48 -10.28 10.32 -10.28 z M140.48000000000002 21.56 c-4.8 0 -8.36 3.68 -8.36 8.44 c0 4.72 3.56 8.4 8.36 8.4 c4.76 0 8.32 -3.68 8.32 -8.4 c0 -4.76 -3.56 -8.44 -8.32 -8.44 z M155.32000000000002 40 l-1.96 0 l0 -27.4 l1.96 0 l0 27.4 z M174.92000000000002 40 l-1.96 0 l0 -3.04 c-0.92 1.56 -3.04 3.36 -6.68 3.36 c-4.68 0 -7.76 -3.16 -7.76 -8.08 l0 -12.24 l1.96 0 l0 12 c0 4.04 2.24 6.44 6 6.44 c3.92 0 6.48 -2.64 6.48 -7 l0 -11.44 l1.96 0 l0 20 z M182.24 20 l5.56 0 l0 1.76 l-5.56 0 l0 12.16 c0 3.36 2.2 4.2 4 4.2 l1.52 0 l0 1.88 l-1.56 0 c-2.72 0 -5.88 -1.52 -5.88 -6.08 l0 -12.16 l-3 0 l0 -1.76 l3 0 l0 -5.8 l1.92 0 l0 5.8 z M192.36 14.719999999999999 l-1.96 0 l0 -2.12 l1.96 0 l0 2.12 z M192.36 40 l-1.96 0 l0 -20 l1.96 0 l0 20 z M205.28 19.68 c5.8 0 10.28 4.48 10.28 10.28 c0 5.84 -4.48 10.32 -10.28 10.32 c-5.84 0 -10.32 -4.48 -10.32 -10.32 c0 -5.8 4.48 -10.28 10.32 -10.28 z M205.28 21.56 c-4.8 0 -8.36 3.68 -8.36 8.44 c0 4.72 3.56 8.4 8.36 8.4 c4.76 0 8.32 -3.68 8.32 -8.4 c0 -4.76 -3.56 -8.44 -8.32 -8.44 z M226.8 19.68 c4.68 0 7.76 3.16 7.76 8.08 l0 12.24 l-1.96 0 l0 -12 c0 -4.04 -2.24 -6.44 -6 -6.44 c-3.92 0 -6.48 2.64 -6.48 7 l0 11.44 l-1.96 0 l0 -20 l1.96 0 l0 3.04 c1.16 -1.8 3.2 -3.36 6.68 -3.36 z M237.16 33.92 l2 0 c0.36 2.84 2.56 4.52 6.36 4.52 c3.68 0 5.6 -1.52 5.6 -3.92 c0 -6.08 -13.2 -1.48 -13.2 -9.32 c0 -3.28 2.76 -5.52 7.04 -5.52 c4.44 0 7.28 2.32 7.52 5.92 l-1.96 0 c-0.2 -2.08 -1.88 -4.08 -5.6 -4.08 c-3.16 0 -5 1.44 -5 3.6 c0 5.88 13.16 1.36 13.16 9.32 c0 3.4 -2.8 5.88 -7.6 5.88 c-4.84 0 -7.84 -2.2 -8.32 -6.4 z"></path></g><g id="SvgjsG3885" featureKey="sloganFeature-0" transform="matrix(0.46834983013443654,0,0,0.46834983013443654,129.43798029316932,63.70508578767594)" fill="url(#SvgjsLinearGradient3895)"><path d="M4.62 20 c-1.88 0 -3.42 -1.56 -3.42 -3.46 l0 -11.3 c0 -0.14 0.12 -0.26 0.26 -0.26 l1.62 0 l0 11.74 c0 0.86 0.7 1.56 1.54 1.56 l6.24 0 c0.14 0 0.26 0.12 0.26 0.26 l0 1.46 l-6.5 0 z M16.119999999999997 6.699999999999999 c-0.84 0 -1.52 0.68 -1.52 1.52 l0 3.8 c0.2 -0.24 0.56 -0.4 0.98 -0.4 l6.58 0 l0 1.46 c0 0.14 -0.12 0.26 -0.26 0.26 l-7.3 0 l0 3.42 c0 0.84 0.68 1.52 1.52 1.52 l6.48 0 c0.14 0 0.26 0.12 0.26 0.26 l0 1.46 l-6.74 0 c-1.88 0 -3.4 -1.52 -3.4 -3.4 l0 -8.22 c0 -1.88 1.52 -3.4 3.4 -3.4 l6.74 0 l0 1.46 c0 0.14 -0.12 0.26 -0.26 0.26 l-6.48 0 z M32.84 5.119999999999999 l5.24 14.88 l-1.64 0 c-0.18 0 -0.32 -0.12 -0.36 -0.26 l-1.34 -3.86 l-7.64 0 l-1.34 3.86 c-0.04 0.14 -0.2 0.26 -0.36 0.26 l-1.64 0 l4.88 -13.9 c0.24 -0.66 0.86 -1.12 1.58 -1.12 l2.38 0 c0.1 0 0.2 0.06 0.24 0.14 z M27.7 14.16 l6.44 0 l-2.6 -7.46 l-0.98 0 c-0.16 0 -0.3 0.1 -0.36 0.26 z M40.839999999999996 20 c-0.64 0 -1.16 -0.52 -1.16 -1.16 l0 -12.7 c0 -0.64 0.52 -1.16 1.16 -1.16 l6.42 0 c1.88 0 3.4 1.52 3.4 3.4 l0 8.22 c0 1.86 -1.52 3.4 -3.4 3.4 l-6.42 0 z M41.94 18.28 l5.32 0 c0.84 0 1.52 -0.68 1.52 -1.52 l0 -8.54 c0 -0.84 -0.68 -1.52 -1.52 -1.52 l-5.32 0 c-0.22 0 -0.38 0.16 -0.38 0.38 l0 10.82 c0 0.2 0.16 0.38 0.38 0.38 z M53.72 20 c-0.14 0 -0.26 -0.12 -0.26 -0.26 l0 -14.76 l1.62 0 c0.14 0 0.26 0.12 0.26 0.26 l0 14.76 l-1.62 0 z M66.38 13.7 l1.82 3.58 c-0.2 -1.56 -0.2 -2.82 -0.3 -4.24 l0 -7.8 c0 -0.14 0.12 -0.26 0.26 -0.26 l1.62 0 l0 15.02 l-1.74 0 c-0.14 0 -0.32 -0.12 -0.38 -0.24 l-6.84 -12.74 c-0.1 -0.18 -0.34 -0.32 -0.54 -0.32 l-0.34 0 l0 13.04 c0 0.14 -0.12 0.26 -0.26 0.26 l-1.62 0 l0 -14.76 c0 -0.14 0.12 -0.26 0.26 -0.26 l2.28 0 c0.64 0 1.4 0.46 1.7 1.02 z M75.62 20.08 c-1.88 0 -3.4 -1.52 -3.4 -3.4 l0 -8.38 c0 -1.88 1.52 -3.4 3.4 -3.4 l6.86 0 l0 1.46 c0 0.14 -0.12 0.26 -0.28 0.26 l-6.58 0 c-0.84 0 -1.52 0.68 -1.52 1.52 l0 8.7 c0 0.84 0.68 1.52 1.52 1.52 l4.14 0 c0.84 0 1.7 -0.68 1.7 -1.52 l0 -3.62 l-3.64 0 c-0.14 0 -0.26 -0.12 -0.26 -0.26 l0 -1.46 l5.34 0 c0.14 0 0.26 0.12 0.26 0.26 l0 5.12 c0 2.12 -1.52 3.2 -3.4 3.2 l-4.14 0 z M92.52 4.98 l10.64 0 l0 1.46 c0 0.14 -0.12 0.26 -0.26 0.26 l-4.28 0 l0 13.04 c0 0.14 -0.1 0.26 -0.26 0.26 l-1.62 0 l0 -13.3 l-4.48 0 l0 -1.46 c0 -0.14 0.12 -0.26 0.26 -0.26 z M114.01999999999998 4.98 l1.62 0 l0 15.02 l-1.62 0 c-0.14 0 -0.26 -0.12 -0.26 -0.26 l0 -6.4 l-7.18 0 l0 6.4 c0 0.14 -0.12 0.26 -0.26 0.26 l-1.62 0 l0 -15.02 l1.62 0 c0.14 0 0.26 0.12 0.26 0.26 l0 6.38 l7.18 0 l0 -6.38 c0 -0.14 0.12 -0.26 0.26 -0.26 z M121.45999999999998 6.699999999999999 c-0.84 0 -1.52 0.68 -1.52 1.52 l0 3.8 c0.2 -0.24 0.56 -0.4 0.98 -0.4 l6.58 0 l0 1.46 c0 0.14 -0.12 0.26 -0.26 0.26 l-7.3 0 l0 3.42 c0 0.84 0.68 1.52 1.52 1.52 l6.48 0 c0.14 0 0.26 0.12 0.26 0.26 l0 1.46 l-6.74 0 c-1.88 0 -3.4 -1.52 -3.4 -3.4 l0 -8.22 c0 -1.88 1.52 -3.4 3.4 -3.4 l6.74 0 l0 1.46 c0 0.14 -0.12 0.26 -0.26 0.26 l-6.48 0 z M145.04 4.98 c1.88 0 3.4 1.54 3.4 3.4 l0 1.98 c0 1.86 -1.52 3.4 -3.4 3.4 l-4.38 0 c-0.62 0 -1.12 -0.36 -1.16 -0.8 l0 6.78 c0 0.14 -0.12 0.26 -0.26 0.26 l-1.62 0 l0 -13.86 c0 -0.64 0.52 -1.16 1.16 -1.16 l6.26 0 z M146.56 10.52 l0 -2.3 c0 -0.84 -0.68 -1.52 -1.52 -1.52 l-5.16 0 c-0.22 0 -0.38 0.18 -0.38 0.38 l0 4.58 c0 0.2 0.18 0.38 0.38 0.38 l0.02 0 l5.14 0 c0.84 0 1.52 -0.68 1.52 -1.52 z M157.28 5.119999999999999 l5.24 14.88 l-1.64 0 c-0.18 0 -0.32 -0.12 -0.36 -0.26 l-1.34 -3.86 l-7.64 0 l-1.34 3.86 c-0.04 0.14 -0.2 0.26 -0.36 0.26 l-1.64 0 l4.88 -13.9 c0.24 -0.66 0.86 -1.12 1.58 -1.12 l2.38 0 c0.1 0 0.2 0.06 0.24 0.14 z M152.14 14.16 l6.44 0 l-2.6 -7.46 l-0.98 0 c-0.16 0 -0.3 0.1 -0.36 0.26 z M164.07999999999998 16.6 l0 -8.22 c0 -1.88 1.52 -3.4 3.4 -3.4 l6.6 0 l0 1.46 c0 0.14 -0.12 0.26 -0.26 0.26 l-6.34 0 c-0.84 0 -1.52 0.68 -1.52 1.52 l0 8.54 c0 0.84 0.68 1.52 1.52 1.52 l6.34 0 c0.14 0 0.26 0.12 0.26 0.26 l0 1.46 l-6.6 0 c-1.88 0 -3.4 -1.54 -3.4 -3.4 z M184.98 12.940000000000001 l3.14 7.06 l-1.8 0 c-0.14 0 -0.32 -0.12 -0.38 -0.24 l-2.84 -6.42 l-4.56 0 c-0.2 0 -0.38 0.18 -0.38 0.38 l0 6.02 c0 0.14 -0.12 0.26 -0.26 0.26 l-1.62 0 l0 -14.76 c0 -0.14 0.12 -0.26 0.26 -0.26 l1.62 0 l0 7.06 c0.2 -0.24 0.58 -0.42 1 -0.42 l4.22 0 c0.84 0 1.52 -0.68 1.52 -1.52 l0 -4.86 c0 -0.14 0.12 -0.26 0.28 -0.26 l1.62 0 l0 4.96 c0 1.3 -0.74 2.44 -1.82 3 z M197.9 20 c-0.14 0 -0.26 -0.12 -0.26 -0.26 l0 -14.76 l1.62 0 c0.14 0 0.26 0.12 0.26 0.26 l0 14.76 l-1.62 0 z M210.56000000000003 13.7 l1.82 3.58 c-0.2 -1.56 -0.2 -2.82 -0.3 -4.24 l0 -7.8 c0 -0.14 0.12 -0.26 0.26 -0.26 l1.62 0 l0 15.02 l-1.74 0 c-0.14 0 -0.32 -0.12 -0.38 -0.24 l-6.84 -12.74 c-0.1 -0.18 -0.34 -0.32 -0.54 -0.32 l-0.34 0 l0 13.04 c0 0.14 -0.12 0.26 -0.26 0.26 l-1.62 0 l0 -14.76 c0 -0.14 0.12 -0.26 0.26 -0.26 l2.28 0 c0.64 0 1.4 0.46 1.7 1.02 z M224.64000000000001 20 c-0.14 0 -0.26 -0.12 -0.26 -0.26 l0 -14.76 l1.62 0 c0.14 0 0.26 0.12 0.26 0.26 l0 14.76 l-1.62 0 z M237.30000000000004 13.7 l1.82 3.58 c-0.2 -1.56 -0.2 -2.82 -0.3 -4.24 l0 -7.8 c0 -0.14 0.12 -0.26 0.26 -0.26 l1.62 0 l0 15.02 l-1.74 0 c-0.14 0 -0.32 -0.12 -0.38 -0.24 l-6.84 -12.74 c-0.1 -0.18 -0.34 -0.32 -0.54 -0.32 l-0.34 0 l0 13.04 c0 0.14 -0.12 0.26 -0.26 0.26 l-1.62 0 l0 -14.76 c0 -0.14 0.12 -0.26 0.26 -0.26 l2.28 0 c0.64 0 1.4 0.46 1.7 1.02 z M251.44000000000003 13.7 l1.82 3.58 c-0.2 -1.56 -0.2 -2.82 -0.3 -4.24 l0 -7.8 c0 -0.14 0.12 -0.26 0.26 -0.26 l1.62 0 l0 15.02 l-1.74 0 c-0.14 0 -0.32 -0.12 -0.38 -0.24 l-6.84 -12.74 c-0.1 -0.18 -0.34 -0.32 -0.54 -0.32 l-0.34 0 l0 13.04 c0 0.14 -0.12 0.26 -0.26 0.26 l-1.62 0 l0 -14.76 c0 -0.14 0.12 -0.26 0.26 -0.26 l2.28 0 c0.64 0 1.4 0.46 1.7 1.02 z M265.16 20.08 l-4.52 0 c-1.88 0 -3.4 -1.52 -3.4 -3.4 l0 -8.38 c0 -1.88 1.52 -3.4 3.4 -3.4 l4.52 0 c1.86 0 3.4 1.52 3.4 3.4 l0 8.38 c0 1.88 -1.54 3.4 -3.4 3.4 z M260.64 6.619999999999999 c-0.84 0 -1.52 0.68 -1.52 1.52 l0 8.7 c0 0.84 0.68 1.52 1.52 1.52 l4.52 0 c0.84 0 1.52 -0.68 1.52 -1.52 l0 -8.7 c0 -0.84 -0.68 -1.52 -1.52 -1.52 l-4.52 0 z M276.48 17.46 l4.24 -12.24 c0.06 -0.12 0.2 -0.24 0.34 -0.24 l1.74 0 l-5.2 14.76 c-0.04 0.14 -0.2 0.26 -0.34 0.26 l-1.58 0 c-0.14 0 -0.3 -0.12 -0.34 -0.26 l-5.2 -14.76 l1.74 0 c0.14 0 0.3 0.12 0.34 0.24 z M291.25999999999993 5.119999999999999 l5.24 14.88 l-1.64 0 c-0.18 0 -0.32 -0.12 -0.36 -0.26 l-1.34 -3.86 l-7.64 0 l-1.34 3.86 c-0.04 0.14 -0.2 0.26 -0.36 0.26 l-1.64 0 l4.88 -13.9 c0.24 -0.66 0.86 -1.12 1.58 -1.12 l2.38 0 c0.1 0 0.2 0.06 0.24 0.14 z M286.11999999999995 14.16 l6.44 0 l-2.6 -7.46 l-0.98 0 c-0.16 0 -0.3 0.1 -0.36 0.26 z M295.91999999999996 4.98 l10.64 0 l0 1.46 c0 0.14 -0.12 0.26 -0.26 0.26 l-4.28 0 l0 13.04 c0 0.14 -0.1 0.26 -0.26 0.26 l-1.62 0 l0 -13.3 l-4.48 0 l0 -1.46 c0 -0.14 0.12 -0.26 0.26 -0.26 z M308.78 20 c-0.14 0 -0.26 -0.12 -0.26 -0.26 l0 -14.76 l1.62 0 c0.14 0 0.26 0.12 0.26 0.26 l0 14.76 l-1.62 0 z M318.64 17.46 l4.24 -12.24 c0.06 -0.12 0.2 -0.24 0.34 -0.24 l1.74 0 l-5.2 14.76 c-0.04 0.14 -0.2 0.26 -0.34 0.26 l-1.58 0 c-0.14 0 -0.3 -0.12 -0.34 -0.26 l-5.2 -14.76 l1.74 0 c0.14 0 0.3 0.12 0.34 0.24 z M329.78 6.699999999999999 c-0.84 0 -1.52 0.68 -1.52 1.52 l0 3.8 c0.2 -0.24 0.56 -0.4 0.98 -0.4 l6.58 0 l0 1.46 c0 0.14 -0.12 0.26 -0.26 0.26 l-7.3 0 l0 3.42 c0 0.84 0.68 1.52 1.52 1.52 l6.48 0 c0.14 0 0.26 0.12 0.26 0.26 l0 1.46 l-6.74 0 c-1.88 0 -3.4 -1.52 -3.4 -3.4 l0 -8.22 c0 -1.88 1.52 -3.4 3.4 -3.4 l6.74 0 l0 1.46 c0 0.14 -0.12 0.26 -0.26 0.26 l-6.48 0 z M345.84 18.28 l7.4 0 c0.84 0 1.48 -0.68 1.48 -1.52 l0 -1.82 c0 -0.2 -0.16 -0.42 -0.36 -0.48 l-7.68 -2.56 c-0.6 -0.2 -1.1 -0.88 -1.1 -1.52 l0 -2.38 c0 -1.88 1.52 -3.02 3.4 -3.02 l7.12 0 l0 1.46 c0 0.14 -0.1 0.26 -0.26 0.26 l-6.86 0 c-0.84 0 -1.54 0.54 -1.54 1.38 l0 1.94 c0 0.22 0.16 0.44 0.36 0.5 l7.68 2.54 c0.6 0.2 1.04 0.9 1.04 1.54 l0 2.14 c0 1.88 -1.42 3.26 -3.28 3.26 l-7.66 0 l0 -1.46 c0 -0.16 0.12 -0.26 0.26 -0.26 z M366.56 20.08 l-4.52 0 c-1.88 0 -3.4 -1.52 -3.4 -3.4 l0 -8.38 c0 -1.88 1.52 -3.4 3.4 -3.4 l4.52 0 c1.86 0 3.4 1.52 3.4 3.4 l0 8.38 c0 1.88 -1.54 3.4 -3.4 3.4 z M362.03999999999996 6.619999999999999 c-0.84 0 -1.52 0.68 -1.52 1.52 l0 8.7 c0 0.84 0.68 1.52 1.52 1.52 l4.52 0 c0.84 0 1.52 -0.68 1.52 -1.52 l0 -8.7 c0 -0.84 -0.68 -1.52 -1.52 -1.52 l-4.52 0 z M375.78 20 c-1.88 0 -3.42 -1.56 -3.42 -3.46 l0 -11.3 c0 -0.14 0.12 -0.26 0.26 -0.26 l1.62 0 l0 11.74 c0 0.86 0.7 1.56 1.54 1.56 l6.24 0 c0.14 0 0.26 0.12 0.26 0.26 l0 1.46 l-6.5 0 z M387.29999999999995 20.08 c-1.88 0 -3.4 -1.52 -3.4 -3.4 l0 -11.7 l1.62 0 c0.14 0 0.26 0.12 0.26 0.26 l0 11.6 c0 0.84 0.68 1.52 1.52 1.52 l4.52 0 c0.84 0 1.52 -0.68 1.52 -1.52 l0 -11.6 c0 -0.14 0.12 -0.26 0.26 -0.26 l1.62 0 l0 11.7 c0 1.88 -1.54 3.4 -3.4 3.4 l-4.52 0 z M397.0799999999999 4.98 l10.64 0 l0 1.46 c0 0.14 -0.12 0.26 -0.26 0.26 l-4.28 0 l0 13.04 c0 0.14 -0.1 0.26 -0.26 0.26 l-1.62 0 l0 -13.3 l-4.48 0 l0 -1.46 c0 -0.14 0.12 -0.26 0.26 -0.26 z M409.93999999999994 20 c-0.14 0 -0.26 -0.12 -0.26 -0.26 l0 -14.76 l1.62 0 c0.14 0 0.26 0.12 0.26 0.26 l0 14.76 l-1.62 0 z M422.17999999999995 20.08 l-4.52 0 c-1.88 0 -3.4 -1.52 -3.4 -3.4 l0 -8.38 c0 -1.88 1.52 -3.4 3.4 -3.4 l4.52 0 c1.86 0 3.4 1.52 3.4 3.4 l0 8.38 c0 1.88 -1.54 3.4 -3.4 3.4 z M417.6599999999999 6.619999999999999 c-0.84 0 -1.52 0.68 -1.52 1.52 l0 8.7 c0 0.84 0.68 1.52 1.52 1.52 l4.52 0 c0.84 0 1.52 -0.68 1.52 -1.52 l0 -8.7 c0 -0.84 -0.68 -1.52 -1.52 -1.52 l-4.52 0 z M436.2999999999999 13.7 l1.82 3.58 c-0.2 -1.56 -0.2 -2.82 -0.3 -4.24 l0 -7.8 c0 -0.14 0.12 -0.26 0.26 -0.26 l1.62 0 l0 15.02 l-1.74 0 c-0.14 0 -0.32 -0.12 -0.38 -0.24 l-6.84 -12.74 c-0.1 -0.18 -0.34 -0.32 -0.54 -0.32 l-0.34 0 l0 13.04 c0 0.14 -0.12 0.26 -0.26 0.26 l-1.62 0 l0 -14.76 c0 -0.14 0.12 -0.26 0.26 -0.26 l2.28 0 c0.64 0 1.4 0.46 1.7 1.02 z M442.0199999999999 18.28 l7.4 0 c0.84 0 1.48 -0.68 1.48 -1.52 l0 -1.82 c0 -0.2 -0.16 -0.42 -0.36 -0.48 l-7.68 -2.56 c-0.6 -0.2 -1.1 -0.88 -1.1 -1.52 l0 -2.38 c0 -1.88 1.52 -3.02 3.4 -3.02 l7.12 0 l0 1.46 c0 0.14 -0.1 0.26 -0.26 0.26 l-6.86 0 c-0.84 0 -1.54 0.54 -1.54 1.38 l0 1.94 c0 0.22 0.16 0.44 0.36 0.5 l7.68 2.54 c0.6 0.2 1.04 0.9 1.04 1.54 l0 2.14 c0 1.88 -1.42 3.26 -3.28 3.26 l-7.66 0 l0 -1.46 c0 -0.16 0.12 -0.26 0.26 -0.26 z M455.11999999999995 20 c-0.16 0 -0.28 -0.14 -0.28 -0.28 l0 -1.6 l1.58 0 c0.16 0 0.28 0.14 0.28 0.3 l0 1.58 l-1.58 0 z"></path></g>
			</g>
		</svg>
	